<mxfile host="app.diagrams.net" modified="2021-04-17T13:02:24.782Z" agent="5.0 (Windows NT 10.0; Win64; x64) AppleWebKit/537.36 (KHTML, like Gecko) Chrome/89.0.4389.114 Safari/537.36 OPR/75.0.3969.171" etag="2ZWQVO03yk99j9YBX_Qq" version="14.6.1" type="github" pages="2">
  <diagram id="b4coz7-6FS74P45mpPo5" name="Page-2">
    <mxGraphModel dx="2209" dy="805" grid="1" gridSize="10" guides="1" tooltips="1" connect="1" arrows="1" fold="1" page="1" pageScale="1" pageWidth="827" pageHeight="1169" math="0" shadow="0">
      <root>
        <mxCell id="vdMAz3tlyA3CGCuA17oZ-0" />
        <mxCell id="vdMAz3tlyA3CGCuA17oZ-1" parent="vdMAz3tlyA3CGCuA17oZ-0" />
        <mxCell id="vdMAz3tlyA3CGCuA17oZ-2" value="Rastgele Aday Çözümler İçeren Başlangıç Sürüsünün Oluşturulması" style="rounded=1;whiteSpace=wrap;html=1;shadow=0;strokeWidth=3;fontFamily=Garamond;fontSize=15;strokeColor=#3399FF;" parent="vdMAz3tlyA3CGCuA17oZ-1" vertex="1">
          <mxGeometry x="-820" y="30" width="158" height="83" as="geometry" />
        </mxCell>
        <mxCell id="vdMAz3tlyA3CGCuA17oZ-3" value="Başlangıç Sürüsündeki Parçacıkların Amaç Fonksiyon Değerlerinin Saptanması" style="rounded=1;whiteSpace=wrap;html=1;shadow=0;strokeWidth=3;fontFamily=Garamond;fontSize=15;strokeColor=#3399FF;" parent="vdMAz3tlyA3CGCuA17oZ-1" vertex="1">
          <mxGeometry x="-624" y="30" width="158" height="83" as="geometry" />
        </mxCell>
        <mxCell id="vdMAz3tlyA3CGCuA17oZ-4" value="" style="endArrow=classic;html=1;fontFamily=Garamond;fontSize=13;entryX=0;entryY=0.5;entryDx=0;entryDy=0;exitX=1;exitY=0.5;exitDx=0;exitDy=0;" parent="vdMAz3tlyA3CGCuA17oZ-1" source="vdMAz3tlyA3CGCuA17oZ-2" target="vdMAz3tlyA3CGCuA17oZ-3" edge="1">
          <mxGeometry width="50" height="50" relative="1" as="geometry">
            <mxPoint x="-303" y="-92.5" as="sourcePoint" />
            <mxPoint x="-273" y="-82.5" as="targetPoint" />
          </mxGeometry>
        </mxCell>
        <mxCell id="vdMAz3tlyA3CGCuA17oZ-5" value="" style="edgeStyle=orthogonalEdgeStyle;rounded=0;orthogonalLoop=1;jettySize=auto;html=1;fontFamily=Garamond;fontSize=15;exitX=1;exitY=0.5;exitDx=0;exitDy=0;" parent="vdMAz3tlyA3CGCuA17oZ-1" source="vdMAz3tlyA3CGCuA17oZ-6" target="vdMAz3tlyA3CGCuA17oZ-8" edge="1">
          <mxGeometry relative="1" as="geometry" />
        </mxCell>
        <mxCell id="vdMAz3tlyA3CGCuA17oZ-6" value="Her Parçacığın ve Sürünün En İyi Çözümlerinin Belirlenmesi&lt;br&gt;(&lt;font face=&quot;Verdana&quot; style=&quot;font-size: 13px&quot;&gt;Pi, Pg&lt;/font&gt;)" style="rounded=1;whiteSpace=wrap;html=1;shadow=0;strokeWidth=3;fontFamily=Garamond;fontSize=15;strokeColor=#3399FF;" parent="vdMAz3tlyA3CGCuA17oZ-1" vertex="1">
          <mxGeometry x="-428" y="30" width="158" height="83" as="geometry" />
        </mxCell>
        <mxCell id="vdMAz3tlyA3CGCuA17oZ-7" value="" style="edgeStyle=orthogonalEdgeStyle;rounded=0;orthogonalLoop=1;jettySize=auto;html=1;fontFamily=Garamond;fontSize=15;" parent="vdMAz3tlyA3CGCuA17oZ-1" source="vdMAz3tlyA3CGCuA17oZ-8" target="vdMAz3tlyA3CGCuA17oZ-10" edge="1">
          <mxGeometry relative="1" as="geometry" />
        </mxCell>
        <mxCell id="vdMAz3tlyA3CGCuA17oZ-8" value="Parçacıkların Pozisyon ve Hızlarının Güncellenmesi" style="rounded=1;whiteSpace=wrap;html=1;shadow=0;strokeWidth=3;fontFamily=Garamond;fontSize=15;strokeColor=#3399FF;" parent="vdMAz3tlyA3CGCuA17oZ-1" vertex="1">
          <mxGeometry x="-230.5" y="30" width="167" height="83" as="geometry" />
        </mxCell>
        <mxCell id="vdMAz3tlyA3CGCuA17oZ-9" value="" style="edgeStyle=orthogonalEdgeStyle;rounded=0;orthogonalLoop=1;jettySize=auto;html=1;fontFamily=Garamond;fontSize=15;" parent="vdMAz3tlyA3CGCuA17oZ-1" source="vdMAz3tlyA3CGCuA17oZ-10" target="vdMAz3tlyA3CGCuA17oZ-11" edge="1">
          <mxGeometry relative="1" as="geometry" />
        </mxCell>
        <mxCell id="vdMAz3tlyA3CGCuA17oZ-10" value="Parçacıkların Amaç Fonksiyon Değerlerinin Saptanması" style="rounded=1;whiteSpace=wrap;html=1;shadow=0;strokeWidth=3;fontFamily=Garamond;fontSize=15;strokeColor=#3399FF;" parent="vdMAz3tlyA3CGCuA17oZ-1" vertex="1">
          <mxGeometry x="-226" y="135" width="158" height="56" as="geometry" />
        </mxCell>
        <mxCell id="vdMAz3tlyA3CGCuA17oZ-11" value="Parçacığın En İyisi?&lt;br&gt;" style="rhombus;whiteSpace=wrap;html=1;rounded=1;shadow=0;fontFamily=Garamond;fontSize=15;strokeWidth=4;fillColor=#fff2cc;strokeColor=#d6b656;" parent="vdMAz3tlyA3CGCuA17oZ-1" vertex="1">
          <mxGeometry x="-247" y="214" width="200" height="80" as="geometry" />
        </mxCell>
        <mxCell id="vdMAz3tlyA3CGCuA17oZ-12" value="" style="edgeStyle=orthogonalEdgeStyle;rounded=0;orthogonalLoop=1;jettySize=auto;html=1;fontFamily=Garamond;fontSize=15;exitX=0.5;exitY=1;exitDx=0;exitDy=0;" parent="vdMAz3tlyA3CGCuA17oZ-1" source="vdMAz3tlyA3CGCuA17oZ-13" target="vdMAz3tlyA3CGCuA17oZ-18" edge="1">
          <mxGeometry relative="1" as="geometry" />
        </mxCell>
        <mxCell id="vdMAz3tlyA3CGCuA17oZ-13" value="Parçacığın En İyisini Güncelle" style="whiteSpace=wrap;html=1;rounded=1;shadow=0;fontFamily=Garamond;fontSize=15;strokeWidth=3;strokeColor=#3399FF;" parent="vdMAz3tlyA3CGCuA17oZ-1" vertex="1">
          <mxGeometry x="-548" y="224" width="202" height="60" as="geometry" />
        </mxCell>
        <mxCell id="vdMAz3tlyA3CGCuA17oZ-14" style="edgeStyle=orthogonalEdgeStyle;rounded=0;orthogonalLoop=1;jettySize=auto;html=1;exitX=0.982;exitY=0.504;exitDx=0;exitDy=0;entryX=1;entryY=0.5;entryDx=0;entryDy=0;fontFamily=Garamond;fontSize=15;exitPerimeter=0;" parent="vdMAz3tlyA3CGCuA17oZ-1" source="vdMAz3tlyA3CGCuA17oZ-16" target="vdMAz3tlyA3CGCuA17oZ-8" edge="1">
          <mxGeometry relative="1" as="geometry">
            <Array as="points">
              <mxPoint x="-7" y="476" />
              <mxPoint x="-7" y="72" />
              <mxPoint x="-47" y="72" />
            </Array>
          </mxGeometry>
        </mxCell>
        <mxCell id="vdMAz3tlyA3CGCuA17oZ-15" value="" style="edgeStyle=orthogonalEdgeStyle;rounded=0;orthogonalLoop=1;jettySize=auto;html=1;fontFamily=Garamond;fontSize=15;" parent="vdMAz3tlyA3CGCuA17oZ-1" source="vdMAz3tlyA3CGCuA17oZ-16" target="vdMAz3tlyA3CGCuA17oZ-31" edge="1">
          <mxGeometry relative="1" as="geometry" />
        </mxCell>
        <mxCell id="vdMAz3tlyA3CGCuA17oZ-16" value="Sonlandırma ?&lt;br&gt;İterasyon &lt;br&gt;Sayısı?" style="rhombus;whiteSpace=wrap;html=1;rounded=1;shadow=0;fontFamily=Garamond;fontSize=15;strokeWidth=4;fillColor=#fff2cc;strokeColor=#d6b656;" parent="vdMAz3tlyA3CGCuA17oZ-1" vertex="1">
          <mxGeometry x="-267" y="436" width="240" height="80" as="geometry" />
        </mxCell>
        <mxCell id="vdMAz3tlyA3CGCuA17oZ-17" style="edgeStyle=orthogonalEdgeStyle;rounded=0;orthogonalLoop=1;jettySize=auto;html=1;exitX=0.5;exitY=1;exitDx=0;exitDy=0;fontFamily=Garamond;fontSize=15;" parent="vdMAz3tlyA3CGCuA17oZ-1" source="vdMAz3tlyA3CGCuA17oZ-18" target="vdMAz3tlyA3CGCuA17oZ-16" edge="1">
          <mxGeometry relative="1" as="geometry" />
        </mxCell>
        <mxCell id="vdMAz3tlyA3CGCuA17oZ-18" value="&lt;span&gt;Sürünün En İyisi?&lt;/span&gt;" style="rhombus;whiteSpace=wrap;html=1;rounded=1;shadow=0;fontFamily=Garamond;fontSize=15;strokeWidth=4;fillColor=#fff2cc;strokeColor=#d6b656;" parent="vdMAz3tlyA3CGCuA17oZ-1" vertex="1">
          <mxGeometry x="-521.5" y="303" width="149" height="80" as="geometry" />
        </mxCell>
        <mxCell id="vdMAz3tlyA3CGCuA17oZ-19" style="edgeStyle=orthogonalEdgeStyle;rounded=0;orthogonalLoop=1;jettySize=auto;html=1;exitX=1;exitY=0.5;exitDx=0;exitDy=0;fontFamily=Garamond;fontSize=15;entryX=0.5;entryY=0;entryDx=0;entryDy=0;" parent="vdMAz3tlyA3CGCuA17oZ-1" source="vdMAz3tlyA3CGCuA17oZ-20" target="vdMAz3tlyA3CGCuA17oZ-16" edge="1">
          <mxGeometry relative="1" as="geometry">
            <mxPoint x="-8" y="488" as="targetPoint" />
          </mxGeometry>
        </mxCell>
        <mxCell id="vdMAz3tlyA3CGCuA17oZ-20" value="Sürünün En İysini Güncelle" style="whiteSpace=wrap;html=1;rounded=1;shadow=0;fontFamily=Garamond;fontSize=15;strokeWidth=3;strokeColor=#3399FF;" parent="vdMAz3tlyA3CGCuA17oZ-1" vertex="1">
          <mxGeometry x="-310" y="313" width="120" height="60" as="geometry" />
        </mxCell>
        <mxCell id="vdMAz3tlyA3CGCuA17oZ-21" value="" style="group" parent="vdMAz3tlyA3CGCuA17oZ-1" vertex="1" connectable="0">
          <mxGeometry x="-316" y="206" width="40" height="20" as="geometry" />
        </mxCell>
        <mxCell id="vdMAz3tlyA3CGCuA17oZ-22" value="" style="edgeStyle=orthogonalEdgeStyle;rounded=0;orthogonalLoop=1;jettySize=auto;html=1;fontFamily=Garamond;fontSize=15;exitX=0.024;exitY=0.5;exitDx=0;exitDy=0;exitPerimeter=0;" parent="vdMAz3tlyA3CGCuA17oZ-21" source="vdMAz3tlyA3CGCuA17oZ-11" target="vdMAz3tlyA3CGCuA17oZ-13" edge="1">
          <mxGeometry relative="1" as="geometry" />
        </mxCell>
        <mxCell id="vdMAz3tlyA3CGCuA17oZ-23" value="Evet" style="text;html=1;align=center;verticalAlign=middle;resizable=0;points=[];autosize=1;fontSize=15;fontFamily=Garamond;" parent="vdMAz3tlyA3CGCuA17oZ-21" vertex="1">
          <mxGeometry width="40" height="20" as="geometry" />
        </mxCell>
        <mxCell id="vdMAz3tlyA3CGCuA17oZ-24" value="" style="group" parent="vdMAz3tlyA3CGCuA17oZ-1" vertex="1" connectable="0">
          <mxGeometry x="-368" y="316" width="40" height="20" as="geometry" />
        </mxCell>
        <mxCell id="vdMAz3tlyA3CGCuA17oZ-25" value="" style="edgeStyle=orthogonalEdgeStyle;rounded=0;orthogonalLoop=1;jettySize=auto;html=1;fontFamily=Garamond;fontSize=15;exitX=0.966;exitY=0.5;exitDx=0;exitDy=0;exitPerimeter=0;" parent="vdMAz3tlyA3CGCuA17oZ-24" source="vdMAz3tlyA3CGCuA17oZ-18" target="vdMAz3tlyA3CGCuA17oZ-20" edge="1">
          <mxGeometry relative="1" as="geometry" />
        </mxCell>
        <mxCell id="vdMAz3tlyA3CGCuA17oZ-26" value="" style="group" parent="vdMAz3tlyA3CGCuA17oZ-24" vertex="1" connectable="0">
          <mxGeometry width="40" height="20" as="geometry" />
        </mxCell>
        <mxCell id="vdMAz3tlyA3CGCuA17oZ-27" value="" style="edgeStyle=orthogonalEdgeStyle;rounded=0;orthogonalLoop=1;jettySize=auto;html=1;fontFamily=Garamond;fontSize=15;exitX=0.024;exitY=0.5;exitDx=0;exitDy=0;exitPerimeter=0;" parent="vdMAz3tlyA3CGCuA17oZ-26" edge="1">
          <mxGeometry relative="1" as="geometry" />
        </mxCell>
        <mxCell id="vdMAz3tlyA3CGCuA17oZ-28" value="Evet" style="text;html=1;align=center;verticalAlign=middle;resizable=0;points=[];autosize=1;fontSize=15;fontFamily=Garamond;" parent="vdMAz3tlyA3CGCuA17oZ-26" vertex="1">
          <mxGeometry width="40" height="20" as="geometry" />
        </mxCell>
        <mxCell id="vdMAz3tlyA3CGCuA17oZ-29" value="" style="group" parent="vdMAz3tlyA3CGCuA17oZ-1" vertex="1" connectable="0">
          <mxGeometry x="-58" y="416" width="50" height="20" as="geometry" />
        </mxCell>
        <mxCell id="vdMAz3tlyA3CGCuA17oZ-30" value="Hayır" style="text;html=1;align=center;verticalAlign=middle;resizable=0;points=[];autosize=1;fontSize=15;fontFamily=Garamond;" parent="vdMAz3tlyA3CGCuA17oZ-29" vertex="1">
          <mxGeometry width="50" height="20" as="geometry" />
        </mxCell>
        <mxCell id="vdMAz3tlyA3CGCuA17oZ-31" value="Çözüm&lt;br&gt;(Sürünün En İyisi)" style="whiteSpace=wrap;html=1;rounded=1;shadow=0;fontFamily=Garamond;fontSize=15;strokeWidth=3;strokeColor=#3399FF;" parent="vdMAz3tlyA3CGCuA17oZ-1" vertex="1">
          <mxGeometry x="-207" y="546" width="120" height="60" as="geometry" />
        </mxCell>
        <mxCell id="vdMAz3tlyA3CGCuA17oZ-32" value="" style="endArrow=classic;html=1;fontFamily=Garamond;fontSize=15;exitX=1;exitY=0.5;exitDx=0;exitDy=0;entryX=0;entryY=0.5;entryDx=0;entryDy=0;" parent="vdMAz3tlyA3CGCuA17oZ-1" source="vdMAz3tlyA3CGCuA17oZ-3" target="vdMAz3tlyA3CGCuA17oZ-6" edge="1">
          <mxGeometry width="50" height="50" relative="1" as="geometry">
            <mxPoint x="-443" y="247.5" as="sourcePoint" />
            <mxPoint x="-393" y="197.5" as="targetPoint" />
          </mxGeometry>
        </mxCell>
        <mxCell id="vdMAz3tlyA3CGCuA17oZ-33" value="" style="endArrow=classic;html=1;fontFamily=Garamond;fontSize=15;exitX=0.5;exitY=1;exitDx=0;exitDy=0;entryX=0.5;entryY=0;entryDx=0;entryDy=0;" parent="vdMAz3tlyA3CGCuA17oZ-1" source="vdMAz3tlyA3CGCuA17oZ-11" target="vdMAz3tlyA3CGCuA17oZ-16" edge="1">
          <mxGeometry width="50" height="50" relative="1" as="geometry">
            <mxPoint x="-298" y="416" as="sourcePoint" />
            <mxPoint x="-248" y="366" as="targetPoint" />
          </mxGeometry>
        </mxCell>
        <mxCell id="vdMAz3tlyA3CGCuA17oZ-34" value="" style="group" parent="vdMAz3tlyA3CGCuA17oZ-1" vertex="1" connectable="0">
          <mxGeometry x="-413" y="386" width="45" height="20" as="geometry" />
        </mxCell>
        <mxCell id="vdMAz3tlyA3CGCuA17oZ-35" value="" style="edgeStyle=orthogonalEdgeStyle;rounded=0;orthogonalLoop=1;jettySize=auto;html=1;fontFamily=Garamond;fontSize=15;exitX=0.024;exitY=0.5;exitDx=0;exitDy=0;exitPerimeter=0;" parent="vdMAz3tlyA3CGCuA17oZ-34" edge="1">
          <mxGeometry relative="1" as="geometry" />
        </mxCell>
        <mxCell id="vdMAz3tlyA3CGCuA17oZ-36" value="Hayır" style="text;html=1;align=center;verticalAlign=middle;resizable=0;points=[];autosize=1;fontSize=15;fontFamily=Garamond;" parent="vdMAz3tlyA3CGCuA17oZ-34" vertex="1">
          <mxGeometry x="-5" width="50" height="20" as="geometry" />
        </mxCell>
        <mxCell id="vdMAz3tlyA3CGCuA17oZ-37" value="Hayır" style="text;html=1;align=center;verticalAlign=middle;resizable=0;points=[];autosize=1;fontSize=15;fontFamily=Garamond;" parent="vdMAz3tlyA3CGCuA17oZ-1" vertex="1">
          <mxGeometry x="-148" y="296" width="50" height="20" as="geometry" />
        </mxCell>
        <mxCell id="vdMAz3tlyA3CGCuA17oZ-38" value="Evet" style="text;html=1;align=center;verticalAlign=middle;resizable=0;points=[];autosize=1;fontSize=15;fontFamily=Garamond;" parent="vdMAz3tlyA3CGCuA17oZ-1" vertex="1">
          <mxGeometry x="-148" y="519" width="40" height="20" as="geometry" />
        </mxCell>
      </root>
    </mxGraphModel>
  </diagram>
  <diagram id="gd-G183umtPvbT_Mc6YV" name="Page-3">
    <mxGraphModel dx="1382" dy="805" grid="1" gridSize="10" guides="1" tooltips="1" connect="1" arrows="1" fold="1" page="1" pageScale="1" pageWidth="827" pageHeight="1169" math="0" shadow="0">
      <root>
        <mxCell id="RdlgJq9ZOs_p2mmjh4YO-0" />
        <mxCell id="RdlgJq9ZOs_p2mmjh4YO-1" parent="RdlgJq9ZOs_p2mmjh4YO-0" />
        <mxCell id="RdlgJq9ZOs_p2mmjh4YO-2" value="" style="group;" vertex="1" connectable="0" parent="RdlgJq9ZOs_p2mmjh4YO-1">
          <mxGeometry x="39" y="40" width="370" height="280" as="geometry" />
        </mxCell>
        <mxCell id="RdlgJq9ZOs_p2mmjh4YO-3" value="" style="ellipse;shape=cloud;whiteSpace=wrap;html=1;fillColor=#b0e3e6;strokeColor=#0e8088;" vertex="1" parent="RdlgJq9ZOs_p2mmjh4YO-2">
          <mxGeometry width="370" height="280" as="geometry" />
        </mxCell>
        <mxCell id="RdlgJq9ZOs_p2mmjh4YO-4" value="Göl Yüzeyi (Çözüm Uzayı)" style="text;html=1;strokeColor=none;fillColor=none;align=center;verticalAlign=middle;whiteSpace=wrap;fontFamily=Garamond;fontStyle=1;fontSize=13;" vertex="1" parent="RdlgJq9ZOs_p2mmjh4YO-2">
          <mxGeometry x="145" y="219.46" width="97" height="15.14" as="geometry" />
        </mxCell>
        <mxCell id="RdlgJq9ZOs_p2mmjh4YO-5" value="tkn_1" style="shape=hexagon;html=1;whiteSpace=wrap;perimeter=hexagonPerimeter;fontFamily=Garamond;fontSize=10;fontStyle=1;" vertex="1" parent="RdlgJq9ZOs_p2mmjh4YO-2">
          <mxGeometry x="117.8" y="61.3" width="60" height="16" as="geometry" />
        </mxCell>
        <mxCell id="RdlgJq9ZOs_p2mmjh4YO-6" value="tkn_2" style="shape=hexagon;html=1;whiteSpace=wrap;perimeter=hexagonPerimeter;fontFamily=Garamond;fontSize=10;fontStyle=1;" vertex="1" parent="RdlgJq9ZOs_p2mmjh4YO-2">
          <mxGeometry x="78" y="124" width="60" height="16" as="geometry" />
        </mxCell>
        <mxCell id="RdlgJq9ZOs_p2mmjh4YO-7" value="tkn_3" style="shape=hexagon;html=1;whiteSpace=wrap;perimeter=hexagonPerimeter;fontFamily=Garamond;fontSize=10;fontStyle=1;" vertex="1" parent="RdlgJq9ZOs_p2mmjh4YO-2">
          <mxGeometry x="275.9987755102041" y="88.00081081081082" width="60" height="16" as="geometry" />
        </mxCell>
        <mxCell id="RdlgJq9ZOs_p2mmjh4YO-8" value="tkn_4" style="shape=hexagon;html=1;whiteSpace=wrap;perimeter=hexagonPerimeter;fontFamily=Garamond;fontSize=10;fontStyle=1;" vertex="1" parent="RdlgJq9ZOs_p2mmjh4YO-2">
          <mxGeometry x="234.0816326530612" y="204.32432432432432" width="60" height="16" as="geometry" />
        </mxCell>
        <mxCell id="RdlgJq9ZOs_p2mmjh4YO-9" value="tkn_5" style="shape=hexagon;html=1;whiteSpace=wrap;perimeter=hexagonPerimeter;fontFamily=Garamond;fontSize=10;fontStyle=1;" vertex="1" parent="RdlgJq9ZOs_p2mmjh4YO-2">
          <mxGeometry x="67.95918367346938" y="189.1891891891892" width="60" height="16" as="geometry" />
        </mxCell>
        <mxCell id="RdlgJq9ZOs_p2mmjh4YO-10" value="" style="endArrow=classic;html=1;exitX=1;exitY=0.5;exitDx=0;exitDy=0;entryX=0.571;entryY=0.262;entryDx=0;entryDy=0;entryPerimeter=0;fontFamily=Garamond;fontSize=10;fontStyle=1;" edge="1" parent="RdlgJq9ZOs_p2mmjh4YO-2" source="RdlgJq9ZOs_p2mmjh4YO-5" target="RdlgJq9ZOs_p2mmjh4YO-3">
          <mxGeometry width="50" height="50" relative="1" as="geometry">
            <mxPoint x="128.3673469387755" y="83.24324324324324" as="sourcePoint" />
            <mxPoint x="158.57142857142858" y="83.24324324324324" as="targetPoint" />
          </mxGeometry>
        </mxCell>
        <mxCell id="RdlgJq9ZOs_p2mmjh4YO-11" value="" style="endArrow=classic;html=1;fontFamily=Garamond;fontSize=10;fontStyle=1;exitX=0.96;exitY=0.583;exitDx=0;exitDy=0;exitPerimeter=0;" edge="1" parent="RdlgJq9ZOs_p2mmjh4YO-2" source="RdlgJq9ZOs_p2mmjh4YO-6">
          <mxGeometry width="50" height="50" relative="1" as="geometry">
            <mxPoint x="150.0014285714286" y="134.87891891891888" as="sourcePoint" />
            <mxPoint x="172" y="128" as="targetPoint" />
          </mxGeometry>
        </mxCell>
        <mxCell id="RdlgJq9ZOs_p2mmjh4YO-12" value="" style="endArrow=classic;html=1;exitX=1;exitY=0.5;exitDx=0;exitDy=0;fontFamily=Garamond;fontSize=10;fontStyle=1;" edge="1" parent="RdlgJq9ZOs_p2mmjh4YO-2" source="RdlgJq9ZOs_p2mmjh4YO-9">
          <mxGeometry width="50" height="50" relative="1" as="geometry">
            <mxPoint x="160.83673469387756" y="121.0810810810811" as="sourcePoint" />
            <mxPoint x="168.3877551020408" y="174.05405405405406" as="targetPoint" />
          </mxGeometry>
        </mxCell>
        <mxCell id="RdlgJq9ZOs_p2mmjh4YO-13" value="" style="endArrow=classic;html=1;fontFamily=Garamond;fontSize=10;fontStyle=1;" edge="1" parent="RdlgJq9ZOs_p2mmjh4YO-2">
          <mxGeometry width="50" height="50" relative="1" as="geometry">
            <mxPoint x="293.99775510204086" y="210.8418918918919" as="sourcePoint" />
            <mxPoint x="286" y="172" as="targetPoint" />
          </mxGeometry>
        </mxCell>
        <mxCell id="RdlgJq9ZOs_p2mmjh4YO-14" value="1. Ölçüm Sonunda Sürü Hareketi" style="text;html=1;strokeColor=none;fillColor=none;align=center;verticalAlign=middle;whiteSpace=wrap;fontFamily=Garamond;fontStyle=1;" vertex="1" parent="RdlgJq9ZOs_p2mmjh4YO-2">
          <mxGeometry x="70" y="10" width="240" height="15.14" as="geometry" />
        </mxCell>
        <mxCell id="RdlgJq9ZOs_p2mmjh4YO-15" value="" style="group;" vertex="1" connectable="0" parent="RdlgJq9ZOs_p2mmjh4YO-1">
          <mxGeometry x="418" y="43" width="370" height="280" as="geometry" />
        </mxCell>
        <mxCell id="RdlgJq9ZOs_p2mmjh4YO-16" value="" style="ellipse;shape=cloud;whiteSpace=wrap;html=1;fillColor=#b0e3e6;strokeColor=#0e8088;" vertex="1" parent="RdlgJq9ZOs_p2mmjh4YO-15">
          <mxGeometry width="370" height="280" as="geometry" />
        </mxCell>
        <mxCell id="RdlgJq9ZOs_p2mmjh4YO-17" value="Göl Yüzeyi (Çözüm Uzayı)" style="text;html=1;strokeColor=none;fillColor=none;align=center;verticalAlign=middle;whiteSpace=wrap;fontFamily=Garamond;fontStyle=1;fontSize=13;" vertex="1" parent="RdlgJq9ZOs_p2mmjh4YO-15">
          <mxGeometry x="152" y="219.46" width="88.98" height="15.14" as="geometry" />
        </mxCell>
        <mxCell id="RdlgJq9ZOs_p2mmjh4YO-18" value="tkn_1" style="shape=hexagon;html=1;whiteSpace=wrap;perimeter=hexagonPerimeter;fontFamily=Garamond;fontSize=10;fontStyle=1;labelBorderColor=none;strokeWidth=1;perimeterSpacing=0;shadow=0;rounded=0;" vertex="1" parent="RdlgJq9ZOs_p2mmjh4YO-15">
          <mxGeometry x="181.99591836734697" y="61.2972972972973" width="60" height="16" as="geometry" />
        </mxCell>
        <mxCell id="RdlgJq9ZOs_p2mmjh4YO-19" value="tkn_2" style="shape=hexagon;html=1;whiteSpace=wrap;perimeter=hexagonPerimeter;fontFamily=Garamond;fontSize=10;fontStyle=1;labelBorderColor=none;strokeWidth=1;perimeterSpacing=0;shadow=0;rounded=0;" vertex="1" parent="RdlgJq9ZOs_p2mmjh4YO-15">
          <mxGeometry x="121.995306122449" y="109.99864864864864" width="60" height="16" as="geometry" />
        </mxCell>
        <mxCell id="RdlgJq9ZOs_p2mmjh4YO-20" value="tkn_3" style="shape=hexagon;html=1;whiteSpace=wrap;perimeter=hexagonPerimeter;fontFamily=Garamond;fontSize=10;fontStyle=1;labelBorderColor=none;strokeWidth=1;perimeterSpacing=0;shadow=0;rounded=0;" vertex="1" parent="RdlgJq9ZOs_p2mmjh4YO-15">
          <mxGeometry x="278.9987755102041" y="89.00081081081082" width="60" height="16" as="geometry" />
        </mxCell>
        <mxCell id="RdlgJq9ZOs_p2mmjh4YO-21" value="tkn_4" style="shape=hexagon;html=1;whiteSpace=wrap;perimeter=hexagonPerimeter;fontFamily=Garamond;fontSize=10;fontStyle=1;labelBorderColor=none;strokeWidth=1;perimeterSpacing=0;shadow=0;rounded=0;" vertex="1" parent="RdlgJq9ZOs_p2mmjh4YO-15">
          <mxGeometry x="242.0016326530612" y="167.00432432432433" width="60" height="16" as="geometry" />
        </mxCell>
        <mxCell id="RdlgJq9ZOs_p2mmjh4YO-22" value="tkn_5" style="shape=hexagon;html=1;whiteSpace=wrap;perimeter=hexagonPerimeter;fontFamily=Garamond;fontSize=10;fontStyle=1;labelBorderColor=none;strokeWidth=1;perimeterSpacing=0;shadow=0;rounded=0;" vertex="1" parent="RdlgJq9ZOs_p2mmjh4YO-15">
          <mxGeometry x="131.9991836734694" y="166.9991891891892" width="60" height="16" as="geometry" />
        </mxCell>
        <mxCell id="RdlgJq9ZOs_p2mmjh4YO-23" value="" style="endArrow=classic;html=1;exitX=1;exitY=0.5;exitDx=0;exitDy=0;fontFamily=Garamond;fontSize=10;fontStyle=1;" edge="1" parent="RdlgJq9ZOs_p2mmjh4YO-15" source="RdlgJq9ZOs_p2mmjh4YO-18">
          <mxGeometry width="50" height="50" relative="1" as="geometry">
            <mxPoint x="128.3673469387755" y="83.24324324324324" as="sourcePoint" />
            <mxPoint x="205" y="103" as="targetPoint" />
          </mxGeometry>
        </mxCell>
        <mxCell id="RdlgJq9ZOs_p2mmjh4YO-24" value="" style="endArrow=classic;html=1;exitX=0.023;exitY=0.541;exitDx=0;exitDy=0;exitPerimeter=0;fontFamily=Garamond;fontSize=10;fontStyle=1;" edge="1" parent="RdlgJq9ZOs_p2mmjh4YO-15" source="RdlgJq9ZOs_p2mmjh4YO-20">
          <mxGeometry width="50" height="50" relative="1" as="geometry">
            <mxPoint x="158.57142857142858" y="135.9589189189189" as="sourcePoint" />
            <mxPoint x="247" y="108" as="targetPoint" />
          </mxGeometry>
        </mxCell>
        <mxCell id="RdlgJq9ZOs_p2mmjh4YO-25" value="" style="endArrow=classic;html=1;exitX=1;exitY=0.5;exitDx=0;exitDy=0;fontFamily=Garamond;fontSize=10;fontStyle=1;" edge="1" parent="RdlgJq9ZOs_p2mmjh4YO-15" source="RdlgJq9ZOs_p2mmjh4YO-22">
          <mxGeometry width="50" height="50" relative="1" as="geometry">
            <mxPoint x="160.83673469387756" y="121.0810810810811" as="sourcePoint" />
            <mxPoint x="186" y="147" as="targetPoint" />
          </mxGeometry>
        </mxCell>
        <mxCell id="RdlgJq9ZOs_p2mmjh4YO-26" value="" style="endArrow=classic;html=1;exitX=1.015;exitY=0.521;exitDx=0;exitDy=0;exitPerimeter=0;fontFamily=Garamond;fontSize=10;fontStyle=1;" edge="1" parent="RdlgJq9ZOs_p2mmjh4YO-15" source="RdlgJq9ZOs_p2mmjh4YO-21">
          <mxGeometry width="50" height="50" relative="1" as="geometry">
            <mxPoint x="279.38775510204084" y="211.8918918918919" as="sourcePoint" />
            <mxPoint x="242" y="149" as="targetPoint" />
          </mxGeometry>
        </mxCell>
        <mxCell id="RdlgJq9ZOs_p2mmjh4YO-27" value="2. Ölçüm Sonunda Sürü Hareketi" style="text;html=1;strokeColor=none;fillColor=none;align=center;verticalAlign=middle;whiteSpace=wrap;fontFamily=Garamond;fontStyle=1;" vertex="1" parent="RdlgJq9ZOs_p2mmjh4YO-15">
          <mxGeometry x="72" y="7" width="240" height="15.14" as="geometry" />
        </mxCell>
      </root>
    </mxGraphModel>
  </diagram>
</mxfile>
